<svg xmlns="http://www.w3.org/2000/svg" xmlns:xlink="http://www.w3.org/1999/xlink" version="1.1" width="128" height="128" viewBox="0 0 100 100">
	<defs>
		<g id="background">
			<path fill="url(#background-gradient)" stroke="none" d=" M 85.35 85.35 Q 100 70.6 100 50 100 29.3 85.35 14.65 70.7 0 50 0 29.3 0 14.65 14.65 0 29.3 0 50 0 70.6 14.65 85.35 29.3 100 50 100 70.7 100 85.35 85.35 Z"/>
		</g>
		<g id="middle-1">
			<path fill="#FFFFFF" fill-opacity="0.30196078431372547" stroke="none" d=" M 85.35 85.35 Q 100 70.6 100 50 100 29.3 85.35 14.65 70.7 0 50 0 29.3 0 14.65 14.65 0 29.3 0 50 0 70.6 14.65 85.35 29.3 100 50 100 70.7 100 85.35 85.35 M 50 7.05 Q 67.75 7.05 80.35 19.65 92.85 32.25 92.85 50 92.85 67.75 80.35 80.25 67.75 92.85 50 92.85 32.25 92.85 19.65 80.25 7.15 67.75 7.15 50 7.15 32.25 19.65 19.65 32.25 7.05 50 7.05 Z"/>
		</g>

		<mask id="mask">
			<path fill="#FFFFFF" stroke="none" d=" M 85.35 85.35 Q 100 70.6 100 50 100 29.3 85.35 14.65 70.7 0 50 0 29.3 0 14.65 14.65 0 29.3 0 50 0 70.6 14.65 85.35 29.3 100 50 100 70.7 100 85.35 85.35 Z"/>
		</mask>

		<linearGradient id="background-gradient" x1="0" y1="0" y2="1" x2="0" >
			<stop stop-color="#9aa4a4" offset="0%"/>
			<stop stop-color="#9aa4a4" offset="100%"/>
		</linearGradient>

		<g transform="scale(0.8190007780607367) translate(-59 -66.95500564575195)" id="picture">
			<path d="M66 134.526v44.455h-7V77.02h23.8c12.4 0 21.6 2.243 27.4 6.933 6 4.69 8.8 11.624 8.8 21.004 0 6.933-1.8 12.643-5.4 17.333-3.6 4.69-9 8.157-16.2 10.196l27.6 46.495h-8.4l-25.8-44.455H66zm0-6.118h19c8.4 0 15-1.835 19.6-5.71 4.6-3.874 7-9.584 7-16.925 0-7.75-2.2-13.46-6.8-16.926-4.6-3.467-12-5.302-22.2-5.302H66v44.863z M181.1 107.092c0 9.694-3.2 17.167-9.8 22.418s-15.8 7.876-28 7.876h-15.4v41.604h-7V78.01h24.4c23.8 0 35.8 9.694 35.8 29.082zm-53.2 24.034h13.8c11.2 0 19.4-1.818 24.4-5.655s7.6-9.896 7.6-18.177c0-7.876-2.4-13.531-7.2-17.369-4.8-3.837-12-5.654-22-5.654h-16.6v46.855z"/>
		</g>
			
		<linearGradient id="picture-gradient" x1="0" y1="0" y2="1" x2="0" >
			<stop stop-color="#ffffff" offset="0%"/>
			<stop stop-color="#e5eff9" offset="100%"/>
		</linearGradient>
	</defs>

	<use xlink:href="#background" fill="url(#background-gradient)" />
	<use xlink:href="#middle-1" />

	<g mask="url(#mask)">
		<g transform="translate(50 50) translate(5 0) scale(0.6000000000000001) translate(-50 -50)">
			<use xlink:href="#picture" fill="url(#picture-gradient)"/>
		</g>
	</g>
</svg>